<?xml version="1.0" encoding="utf-8"?>
<!-- Generator: Adobe Illustrator 22.0.1, SVG Export Plug-In . SVG Version: 6.00 Build 0)  -->
<svg version="1.1" id="Layer_1" xmlns="http://www.w3.org/2000/svg" xmlns:xlink="http://www.w3.org/1999/xlink" x="0px" y="0px"
	 viewBox="0 0 162 180.9" style="enable-background:new 0 0 162 180.9;" xml:space="preserve">
<style type="text/css">
	.st0{fill:#00ADEE;}
</style>
<g>
	<path class="st0" d="M28.1,82.7c-1.5,0-2.5,0.1-3,0.3v9.6c0.6,0.1,1.4,0.2,2.5,0.2c3.9,0,6.3-2,6.3-5.3
		C33.8,84.5,31.7,82.7,28.1,82.7z"/>
	<path class="st0" d="M82.8,82.9L82.8,82.9c-0.6,1.9-1.1,4.4-1.6,6.3l-1.9,6.9h7.2l-2-6.9C83.9,87.3,83.3,84.9,82.8,82.9z"/>
	<path class="st0" d="M152,73.1L91,37.9L30,2.7C16.7-5,0,4.6,0,20v70.4v70.4c0,15.4,16.7,25,30,17.3L91,143l61-35.2
		C165.3,100.1,165.3,80.8,152,73.1z M38.1,95c-2.5,2.4-6.2,3.4-10.6,3.4c-1,0-1.8,0-2.5-0.1v11.6h-7.3V77.9c2.3-0.4,5.4-0.7,9.9-0.7
		c4.5,0,7.8,0.9,9.9,2.6c2.1,1.6,3.5,4.3,3.5,7.5C41.1,90.5,40,93.2,38.1,95z M66,109.9H45.8V77.4h7.4v26.3H66V109.9z M90.1,109.9
		l-2.5-8.3h-9.3l-2.3,8.3h-7.6l9.9-32.5h9.6L98,109.9H90.1z M112.6,96.4v13.5h-7.3V96.6L95,77.4h8.4l3.3,7.8c1,2.4,1.7,4.1,2.5,6.2
		h0.1c0.7-2,1.5-3.9,2.5-6.2l3.3-7.8h8.2L112.6,96.4z"/>
</g>
</svg>
